<svg width="32" height="32" viewBox="0 0 32 32" fill="none" xmlns="http://www.w3.org/2000/svg">
  <!-- Detailed Puzzle-Style Modular Panel -->
  <path d="
    M 6 6 
    L 6 4 L 10 4 L 10 6 
    L 14 6 L 14 4 L 18 4 L 18 6 
    L 22 6 L 22 4 L 26 4 L 26 6 
    L 28 6 L 28 10 L 26 10 L 26 14 
    L 28 14 L 28 18 L 26 18 L 26 22 
    L 28 22 L 28 26 L 26 26 
    L 26 28 L 22 28 L 22 26 
    L 18 26 L 18 28 L 14 28 L 14 26 
    L 10 26 L 10 28 L 6 28 
    L 6 26 L 4 26 L 4 22 
    L 6 22 L 6 18 L 4 18 L 4 14 
    L 6 14 L 6 10 L 4 10 L 4 6 
    Z" fill="#ff9c00"/>
  
  <!-- The characteristic holes -->
  <circle cx="11" cy="11" r="1.2" fill="white" fill-opacity="0.4"/>
  <circle cx="16" cy="11" r="1.2" fill="white" fill-opacity="0.4"/>
  <circle cx="21" cy="11" r="1.2" fill="white" fill-opacity="0.4"/>
  
  <circle cx="11" cy="16" r="1.2" fill="white" fill-opacity="0.4"/>
  <circle cx="16" cy="16" r="1.2" fill="white" fill-opacity="0.4"/>
  <circle cx="21" cy="16" r="1.2" fill="white" fill-opacity="0.4"/>
  
  <circle cx="11" cy="21" r="1.2" fill="white" fill-opacity="0.4"/>
  <circle cx="16" cy="21" r="1.2" fill="white" fill-opacity="0.4"/>
  <circle cx="21" cy="21" r="1.2" fill="white" fill-opacity="0.4"/>
</svg>
